<?xml version="1.0" standalone="no"?>
<!DOCTYPE svg PUBLIC "-//W3C//DTD SVG 20010904//EN"
 "http://www.w3.org/TR/2001/REC-SVG-20010904/DTD/svg10.dtd">
<svg version="1.0" xmlns="http://www.w3.org/2000/svg"
 width="1024.000000pt" height="1024.000000pt" viewBox="0 0 1024.000000 1024.000000"
 preserveAspectRatio="xMidYMid meet">
<metadata>
Created by potrace 1.14, written by Peter Selinger 2001-2017
</metadata>
<g transform="translate(0.000000,1024.000000) scale(0.100000,-0.100000)"
fill="#000000" stroke="none">
<path d="M0 5120 l0 -5120 5120 0 5120 0 0 5120 0 5120 -5120 0 -5120 0 0
-5120z m10096 5015 c8 -33 0 -53 -30 -66 -37 -17 -56 -5 -56 34 0 40 15 57 52
57 21 0 29 -6 34 -25z m-6932 -41 c18 -7 10 -34 -10 -34 -8 0 -14 9 -14 20 0
22 1 23 24 14z m-1241 -539 c2 -5 -2 -25 -10 -44 -11 -25 -17 -31 -26 -22 -6
6 -21 11 -34 11 -16 0 -24 7 -29 24 -3 14 -3 29 0 34 7 12 95 10 99 -3z m1138
-916 c23 -12 201 -42 242 -41 17 1 27 -4 27 -13 0 -8 5 -15 10 -15 6 0 10 -6
10 -14 0 -20 -67 -76 -90 -76 -13 0 -20 -7 -20 -19 0 -10 -7 -21 -15 -25 -9
-3 -15 -19 -15 -41 0 -29 -5 -39 -29 -53 -23 -13 -31 -26 -36 -62 -4 -25 -16
-53 -26 -63 -14 -13 -19 -29 -17 -50 4 -40 45 -54 92 -31 71 35 106 56 106 65
0 5 7 9 15 9 7 0 18 6 22 14 4 7 20 15 35 18 22 4 28 1 33 -19 12 -51 -47
-120 -137 -160 -16 -7 -28 -17 -28 -23 0 -5 -10 -31 -21 -55 -16 -34 -26 -44
-38 -40 -9 3 -25 -1 -36 -9 -18 -13 -18 -14 3 -41 28 -36 28 -47 -4 -78 -16
-16 -24 -33 -20 -42 4 -11 -4 -21 -26 -33 -47 -25 -68 -49 -68 -76 0 -35 18
-42 44 -17 12 12 28 21 35 21 7 0 35 11 63 25 27 14 56 25 64 25 25 0 96 42
84 50 -7 4 -9 13 -5 20 5 8 11 8 23 -3 10 -8 26 -17 37 -19 19 -3 20 -11 18
-112 -2 -81 -7 -114 -18 -126 -8 -9 -15 -24 -15 -34 0 -9 -11 -21 -24 -27 -13
-6 -29 -23 -36 -38 -7 -14 -16 -34 -21 -43 -12 -24 -11 -41 4 -71 10 -20 17
-23 25 -15 8 8 15 8 24 1 7 -6 38 -13 68 -17 30 -4 58 -12 61 -18 4 -7 -5 -23
-20 -37 -23 -22 -32 -44 -57 -130 -3 -10 -14 -12 -40 -8 -26 4 -37 2 -41 -9
-4 -10 -14 -13 -32 -9 -34 7 -88 -26 -102 -62 -6 -16 -19 -44 -29 -63 -25 -50
-36 -140 -19 -151 21 -13 39 -11 39 5 0 28 58 136 94 176 27 30 44 40 66 40
18 0 37 8 47 20 24 28 61 26 65 -2 2 -13 11 -24 23 -26 30 -6 45 -22 45 -49 0
-40 19 -65 43 -59 28 6 72 -28 63 -50 -4 -11 -12 -13 -28 -8 -34 11 -61 7 -74
-11 -18 -24 -27 -114 -13 -131 6 -7 8 -25 5 -39 -4 -14 0 -41 9 -61 24 -57 19
-92 -15 -122 -16 -15 -30 -31 -30 -37 0 -7 -11 -22 -25 -35 -39 -37 -109 -188
-108 -233 1 -59 13 -67 145 -94 15 -3 33 -11 39 -19 16 -19 39 -18 39 3 0 9
-10 37 -22 62 -12 25 -24 71 -26 103 -4 49 0 64 24 105 16 26 32 56 36 66 5
12 14 16 27 12 27 -8 90 34 97 67 8 34 25 28 59 -24 21 -31 25 -48 21 -73 -8
-39 12 -60 48 -51 18 4 28 0 41 -20 34 -52 119 -144 134 -144 18 0 13 21 -19
85 -45 89 -63 118 -82 133 -10 7 -18 22 -18 32 0 10 -6 23 -13 27 -21 13 -53
76 -67 131 -17 63 -3 108 30 99 23 -6 40 18 40 56 0 33 12 41 100 71 84 28
191 39 262 25 72 -13 78 -8 72 64 -2 34 -7 75 -10 90 -5 25 -4 27 18 22 19 -5
33 2 65 33 23 22 51 43 62 47 12 4 41 24 64 46 l42 38 80 -5 c44 -3 94 -9 110
-14 17 -5 60 -10 97 -12 54 -2 68 -6 71 -20 4 -13 15 -18 40 -18 20 0 39 -4
42 -10 15 -24 80 -1 141 49 23 19 54 31 82 31 27 0 63 21 104 63 10 9 24 17
32 17 7 0 19 7 26 15 8 10 28 15 54 14 68 -3 126 12 171 42 24 16 46 29 50 29
4 0 19 8 33 19 19 13 38 17 65 13 32 -4 44 -13 76 -56 20 -28 48 -77 60 -108
25 -62 28 -65 45 -44 6 7 49 28 96 47 46 18 114 53 150 77 100 67 216 103 235
73 3 -5 18 -12 35 -16 44 -10 80 -42 80 -73 0 -15 5 -34 10 -42 8 -13 13 -13
42 2 73 37 145 29 199 -21 12 -11 42 -30 67 -41 39 -19 46 -20 61 -6 9 8 47
29 84 47 63 29 74 31 125 24 31 -5 83 -7 115 -7 47 2 59 -1 64 -15 3 -10 14
-27 25 -39 18 -21 18 -22 -4 -61 -13 -21 -48 -62 -78 -90 -30 -29 -64 -68 -74
-87 -19 -36 -19 -36 2 -56 12 -11 27 -20 34 -20 20 1 54 32 72 66 15 32 57 54
101 54 12 0 30 9 40 20 27 30 74 25 152 -16 110 -58 182 -138 169 -189 -8 -30
-42 -42 -64 -21 -19 16 -42 9 -45 -15 -2 -8 -6 -20 -10 -26 -6 -10 1 -13 27
-13 25 0 36 -5 36 -14 0 -18 77 -32 118 -22 79 20 79 20 139 -31 32 -27 70
-57 84 -65 15 -10 29 -29 32 -47 5 -22 11 -29 22 -25 11 4 15 0 15 -16 0 -13
-8 -24 -20 -27 -21 -6 -28 -43 -8 -43 7 0 29 -12 51 -27 21 -15 51 -27 65 -28
22 0 28 -5 30 -27 2 -16 9 -28 16 -28 16 0 27 -34 16 -47 -4 -4 -10 -32 -13
-60 l-6 -53 43 -11 c24 -6 57 -23 73 -37 16 -15 40 -32 55 -39 37 -17 45 -59
17 -89 l-22 -23 37 -38 c51 -53 55 -71 19 -104 -17 -14 -37 -29 -44 -31 -11
-4 -11 -10 -2 -31 8 -16 9 -27 3 -27 -6 0 -10 5 -10 10 0 19 -37 10 -60 -15
-13 -14 -34 -25 -47 -25 -13 0 -23 -4 -23 -10 0 -5 -9 -10 -20 -10 -12 0 -33
-6 -48 -14 -16 -8 -48 -12 -80 -10 l-52 3 6 -39 c6 -36 4 -40 -14 -40 -15 0
-20 5 -16 15 8 20 -26 20 -52 0 -10 -8 -29 -15 -41 -15 -18 0 -23 -6 -23 -26
0 -21 4 -25 19 -21 11 3 22 -1 25 -9 6 -16 77 -7 88 11 4 7 19 10 33 7 14 -2
32 1 40 8 8 6 39 14 69 16 46 4 60 2 86 -17 23 -18 33 -20 42 -11 9 9 16 8 29
-4 16 -15 17 -14 12 7 -5 18 -3 21 11 16 10 -4 36 -7 57 -7 37 0 40 -2 34 -22
-8 -27 -57 -73 -102 -95 -18 -8 -33 -23 -33 -32 0 -9 -13 -22 -30 -29 -16 -8
-30 -18 -30 -23 0 -13 45 -29 82 -29 19 0 36 -8 48 -22 17 -21 21 -22 51 -11
36 14 64 1 55 -23 -3 -7 -1 -16 4 -19 16 -10 12 -35 -5 -29 -26 11 -60 -4 -77
-34 -10 -16 -15 -31 -13 -34 7 -6 -30 -39 -47 -42 -7 -1 -18 -5 -24 -9 -15 -9
-54 -83 -54 -101 0 -8 -9 -16 -20 -19 -13 -3 -20 -14 -20 -30 0 -14 -4 -29
-10 -32 -21 -13 -9 -25 18 -19 37 9 49 21 34 36 -7 7 -12 15 -12 19 0 4 42 8
93 11 50 2 99 8 107 13 8 5 29 8 47 6 25 -2 33 2 33 13 0 19 19 20 43 2 18
-14 24 -66 7 -66 -7 0 -7 -6 0 -19 13 -26 6 -108 -14 -153 -15 -34 -40 -53
-97 -71 -26 -8 -17 -52 12 -55 13 -1 50 -10 82 -20 47 -14 59 -22 64 -42 3
-14 17 -42 31 -63 18 -28 28 -59 33 -107 4 -38 15 -83 25 -101 11 -22 18 -67
22 -139 4 -92 2 -109 -15 -140 -18 -30 -25 -35 -53 -32 -38 3 -90 -38 -90 -70
0 -10 -4 -18 -10 -18 -5 0 -10 -7 -10 -15 0 -9 -9 -15 -25 -15 -31 0 -43 -26
-23 -47 14 -13 25 -10 103 32 l86 47 75 -15 c89 -18 109 -34 129 -100 19 -63
19 -96 1 -133 -8 -16 -19 -63 -25 -104 -10 -68 -15 -78 -48 -106 l-36 -32 12
-62 c16 -79 10 -86 -85 -94 -61 -6 -73 -4 -96 13 -25 20 -26 20 -43 1 -10 -11
-34 -23 -54 -26 -20 -4 -42 -11 -49 -17 -9 -7 -18 -4 -32 8 -25 23 -27 1 -2
-23 26 -27 135 -72 172 -72 11 0 20 -6 20 -14 0 -7 20 -26 44 -41 35 -22 45
-35 50 -64 10 -59 7 -110 -8 -145 -9 -21 -10 -39 -5 -47 10 -16 4 -130 -9
-156 -5 -10 -19 -38 -31 -63 -12 -25 -34 -59 -49 -75 -15 -16 -25 -37 -24 -46
2 -10 -2 -20 -8 -24 -5 -3 -10 -14 -10 -24 0 -19 -40 -59 -100 -101 -19 -14
-46 -38 -60 -53 -30 -33 -186 -90 -210 -77 -9 5 -29 2 -49 -6 -41 -17 -143
-18 -159 -2 -13 13 -155 16 -267 7 -27 -3 -59 -1 -71 4 -32 13 -292 -9 -339
-29 -32 -13 -87 -18 -285 -23 -146 -4 -254 -3 -267 3 -22 9 -22 9 -3 35 10 15
30 33 44 41 30 16 34 40 7 40 -10 0 -21 9 -24 20 -13 51 -73 -6 -65 -62 3 -22
0 -23 -102 -29 -117 -8 -147 0 -212 51 -20 17 -42 30 -47 30 -6 0 -27 18 -46
39 -32 35 -44 41 -108 52 -81 13 -142 44 -173 86 -17 23 -22 47 -26 133 -2 58
-10 116 -17 129 -20 37 -9 160 17 203 12 20 22 44 22 55 0 19 23 68 66 143 12
19 24 46 27 60 3 14 21 42 40 63 32 37 33 40 30 115 -3 72 -13 126 -34 180 -7
19 -16 23 -42 22 -50 -3 -57 -1 -57 16 0 14 9 16 54 12 49 -4 55 -2 61 16 44
151 60 256 44 301 -7 18 -9 41 -5 51 7 18 9 18 23 -4 21 -30 54 -28 87 7 45
47 35 88 -41 167 -38 38 -71 64 -83 64 -12 0 -19 -4 -15 -10 3 -5 0 -18 -6
-29 -12 -18 -15 -17 -51 22 -26 29 -38 50 -38 72 -1 62 -29 148 -58 179 -50
53 -93 141 -102 209 -5 34 -11 132 -14 217 -10 254 -14 287 -44 306 -29 19
-37 11 -47 -45 -4 -20 -11 -42 -17 -48 -14 -18 -67 -16 -74 1 -3 8 -20 19 -37
25 -25 9 -33 9 -39 -3 -33 -58 -63 -55 -126 15 -23 26 -53 51 -65 55 -12 4
-34 15 -49 25 -41 29 -65 24 -82 -16 -17 -40 -28 -43 -53 -16 -10 10 -37 24
-59 30 -35 9 -43 16 -48 42 -3 16 -13 37 -21 45 -8 9 -15 25 -15 36 0 17 -4
19 -27 13 -16 -3 -35 -13 -44 -21 -8 -8 -21 -14 -27 -14 -17 0 -15 -37 3 -44
18 -7 20 -36 2 -36 -7 0 -23 -18 -36 -40 -27 -48 -28 -49 -102 -65 -54 -11
-64 -10 -95 7 -18 10 -54 18 -79 18 -41 0 -45 -2 -45 -24 0 -23 -43 -76 -63
-76 -5 0 -16 8 -23 18 -10 14 -16 15 -32 5 -27 -16 -46 -1 -38 31 5 19 3 26
-8 26 -8 0 -20 8 -25 18 -10 16 -10 15 -11 -3 -1 -43 -15 -50 -100 -50 l-80 0
6 31 c6 33 -9 74 -27 74 -5 0 -15 -12 -21 -27 -7 -16 -21 -38 -31 -50 -13 -14
-20 -38 -21 -65 -1 -47 3 -49 91 -48 20 0 41 -9 55 -23 13 -12 34 -29 47 -38
l24 -15 -27 -27 c-14 -14 -26 -32 -26 -40 0 -27 -39 -51 -78 -49 -39 3 -65 19
-56 34 12 19 -17 64 -53 83 -20 11 -41 19 -47 17 -18 -6 -26 23 -20 69 3 29 1
49 -5 54 -19 11 -12 33 14 42 25 8 24 9 -30 36 -30 16 -55 32 -55 35 0 4 -15
16 -34 26 -39 21 -106 114 -106 147 0 12 -7 27 -15 33 -11 8 -17 37 -22 97 -5
82 -5 87 16 98 13 7 19 17 14 24 -4 7 -6 21 -5 33 2 13 -5 24 -21 31 -13 6
-43 38 -68 72 -49 67 -60 66 -74 -7 -4 -20 -14 -52 -22 -70 -15 -31 -15 -36 1
-62 12 -21 15 -43 11 -79 -2 -28 0 -53 5 -56 13 -8 13 -52 0 -60 -12 -8 -13
-25 -1 -44 7 -11 15 -10 46 9 44 27 56 19 59 -37 1 -22 9 -51 17 -64 9 -13 21
-40 28 -60 9 -27 17 -36 29 -33 25 6 68 -64 53 -88 -6 -10 -11 -25 -11 -34 0
-24 -70 -11 -89 16 -7 11 -20 20 -28 20 -11 0 -12 10 -7 50 5 37 2 59 -10 85
-10 20 -16 45 -14 58 2 12 -2 22 -9 22 -6 0 -15 4 -19 8 -5 4 -27 16 -50 26
-23 11 -45 28 -49 40 -3 12 -10 21 -15 21 -5 0 -18 10 -29 21 -11 12 -30 27
-43 33 -43 21 -31 98 17 110 33 8 32 22 -2 29 -37 7 -103 -47 -103 -84 0 -14
-9 -34 -20 -44 -11 -10 -20 -24 -20 -32 0 -32 -31 -73 -55 -73 -13 0 -27 5
-30 10 -3 6 -16 10 -29 10 -34 0 -51 -39 -40 -92 7 -35 16 -46 49 -65 22 -12
50 -23 61 -23 12 0 24 -7 28 -15 4 -10 14 -13 35 -9 21 5 34 1 49 -14 11 -11
23 -18 26 -14 11 10 6 22 -7 22 -37 0 -65 72 -44 114 8 17 17 18 91 11 44 -3
99 -8 121 -9 l40 -3 0 -104 0 -104 34 -11 c18 -6 39 -20 45 -30 6 -11 18 -18
26 -17 31 7 140 -119 140 -161 0 -6 10 -16 21 -21 12 -6 21 -13 20 -18 -3 -14
33 -43 76 -61 50 -22 53 -27 43 -89 -8 -56 -13 -63 -30 -42 -8 10 -9 15 -1 15
19 0 12 17 -9 23 -11 3 -20 2 -20 -2 0 -4 -12 -6 -27 -5 -16 1 -38 2 -50 3
-14 0 -23 7 -23 17 0 11 -6 15 -20 11 -14 -4 -31 4 -53 25 -47 43 -85 62 -101
48 -13 -10 -32 -7 -73 12 -12 6 -29 8 -39 4 -24 -9 -11 -63 24 -95 16 -14 38
-41 51 -58 12 -18 27 -33 33 -33 5 0 22 -8 36 -19 15 -10 43 -23 63 -30 48
-15 140 -99 180 -164 45 -72 99 -185 99 -207 0 -10 6 -25 14 -32 8 -9 14 -42
15 -94 2 -69 -1 -84 -20 -108 -15 -18 -27 -25 -38 -20 -9 4 -29 6 -44 5 -35
-2 -85 27 -93 53 -9 29 29 56 80 56 22 0 47 4 55 9 16 10 42 81 35 93 -10 16
-34 8 -34 -12 0 -25 -51 -35 -128 -25 -32 4 -67 7 -80 6 -13 0 -30 6 -38 14
-23 23 -44 18 -44 -9 0 -14 -4 -28 -10 -31 -15 -9 -12 -63 5 -82 9 -10 27 -33
41 -50 14 -18 33 -33 42 -33 9 0 26 -10 39 -22 31 -29 33 -127 3 -165 -11 -14
-20 -33 -20 -43 0 -9 -24 -43 -53 -76 -72 -79 -80 -95 -71 -150 5 -35 12 -48
30 -56 13 -6 24 -20 24 -31 0 -17 5 -19 43 -13 60 9 74 1 81 -46 5 -31 2 -48
-15 -76 -23 -39 -74 -92 -88 -92 -5 0 -14 -7 -21 -15 -7 -8 -23 -15 -35 -15
-12 0 -28 -7 -35 -15 -7 -8 -23 -15 -37 -15 -13 0 -22 -4 -18 -9 3 -6 41 -8
85 -6 l80 3 55 -42 c30 -22 71 -52 90 -66 93 -65 88 -58 81 -119 -8 -66 -27
-91 -72 -91 -32 0 -33 1 -39 55 -4 30 -11 53 -15 50 -5 -3 -11 -1 -15 4 -3 5
2 14 11 19 11 6 14 16 9 31 -7 22 -35 30 -35 10 0 -6 -11 -20 -25 -31 -14 -11
-25 -30 -25 -43 0 -13 -10 -34 -22 -45 -33 -30 -14 -52 56 -67 62 -12 95 -36
121 -87 8 -17 21 -39 27 -48 10 -13 9 -30 0 -76 -7 -32 -12 -85 -12 -117 0
-70 -20 -101 -110 -170 -33 -26 -78 -72 -99 -103 -54 -79 -73 -94 -141 -108
-54 -11 -65 -10 -112 8 -29 11 -57 23 -62 28 -5 5 -19 2 -32 -6 -36 -24 -68
-15 -72 21 -2 16 -9 34 -15 38 -7 4 2 7 20 5 26 -2 43 7 96 52 36 30 72 60 81
65 9 6 24 30 32 54 15 43 15 46 -7 62 -22 16 -19 39 5 39 7 0 30 14 51 30 24
19 49 30 69 30 40 0 78 25 58 38 -21 14 -90 7 -111 -12 -10 -9 -27 -17 -37
-16 -92 5 -119 -1 -149 -33 -16 -18 -29 -35 -27 -39 1 -3 -13 -2 -31 3 -17 5
-33 9 -34 9 -1 0 0 -18 2 -41 2 -23 0 -49 -5 -58 -5 -9 -11 -28 -15 -43 -7
-35 -47 -62 -90 -60 -27 1 -34 -3 -37 -22 -3 -12 -1 -33 4 -45 26 -70 25 -182
-1 -142 -7 11 -12 10 -27 -8 -22 -26 -42 -27 -60 -4 -12 16 -15 16 -23 3 -7
-10 -6 -17 2 -22 9 -6 9 -12 -1 -29 -8 -12 -11 -32 -7 -49 8 -34 -11 -73 -55
-115 -17 -16 -40 -49 -50 -72 -13 -30 -30 -48 -54 -60 -19 -9 -33 -20 -30 -25
3 -4 -2 -5 -11 -2 -11 5 -18 -3 -26 -25 -12 -33 -42 -48 -76 -37 -11 3 -38 25
-62 47 -55 53 -127 92 -157 85 -13 -4 -25 -2 -28 3 -3 5 -23 7 -44 4 -28 -4
-44 1 -69 19 -98 72 -133 103 -178 158 -56 67 -88 78 -99 34 -10 -38 -68 -60
-120 -44 -22 7 -51 19 -65 28 -46 29 -101 86 -101 104 0 32 -22 66 -66 99 -24
18 -56 51 -71 73 -40 58 -56 76 -69 76 -15 0 -74 84 -74 107 0 10 4 24 9 32
12 18 -28 78 -94 141 -72 69 -90 130 -61 201 8 19 17 77 21 129 4 52 12 104
18 115 7 11 13 38 14 60 1 34 -4 46 -34 77 -44 45 -52 87 -54 287 0 100 3 146
11 151 6 4 14 34 17 67 6 67 -14 113 -48 113 -25 0 -51 31 -55 64 -1 14 -8 60
-14 102 -11 73 -7 143 11 174 5 10 8 11 9 3 0 -21 28 -15 35 7 3 11 10 20 15
20 12 0 25 96 21 166 -2 37 1 64 8 68 6 4 11 17 11 29 0 14 24 45 68 87 l68
65 -4 58 c-4 55 -6 59 -43 83 -21 13 -39 31 -39 39 0 20 -41 36 -57 23 -15
-12 -14 -13 -17 33 -2 21 -12 46 -25 60 -55 58 -91 186 -86 304 3 94 20 141
64 177 17 15 31 31 31 37 0 19 -27 12 -42 -10 -14 -22 -15 -21 -68 27 -121
109 -145 138 -170 204 -36 98 -38 165 -7 231 40 86 42 111 12 139 -32 30 -32
50 1 50 21 0 25 3 19 18 -4 9 -10 31 -13 47 -2 17 -10 37 -17 45 -6 8 -15 23
-18 33 -4 9 -14 17 -22 17 -12 0 -15 -6 -10 -22 6 -19 5 -21 -6 -10 -7 6 -22
12 -32 12 -15 0 -18 5 -14 21 5 19 2 21 -24 15 -24 -4 -32 -1 -46 22 -21 32
-94 102 -106 102 -12 0 36 50 48 50 6 0 21 10 34 21 19 15 24 29 23 54 -2 23
5 42 23 63 15 18 25 42 25 61 0 29 3 31 34 31 18 0 38 -6 43 -12 18 -22 21
-67 7 -79 -8 -6 -14 -20 -14 -30 0 -10 -4 -21 -10 -24 -5 -3 -10 -18 -10 -32
0 -24 1 -25 18 -11 21 19 84 29 102 18 9 -5 28 -1 52 11 66 33 41 72 -32 50
-46 -13 -64 -8 -78 25 -10 20 -8 28 8 44 21 21 27 50 10 50 -5 0 -7 -7 -4 -15
4 -9 0 -15 -10 -15 -12 0 -16 10 -16 45 0 37 3 45 19 45 19 0 90 52 104 75 4
8 0 46 -9 86 -20 90 -15 158 19 232 29 63 32 74 18 79 -12 4 -17 86 -7 116 5
14 1 51 -8 90 -9 37 -18 98 -22 135 -5 61 -8 68 -25 64 -10 -3 -31 4 -46 16
l-27 22 28 5 c25 4 29 10 33 45 5 46 5 39 1 125 -1 36 1 70 4 75 3 6 12 46 19
89 10 62 18 86 41 112 27 31 29 38 27 105 -2 48 2 73 10 79 13 7 19 17 59 89
39 72 145 166 225 202 12 5 36 18 54 29 83 50 186 65 433 65 189 -1 255 -9
348 -43 53 -19 104 -16 154 9 10 5 35 9 57 9 22 0 41 5 43 11 2 6 32 13 67 16
53 5 64 9 71 28 5 12 16 25 24 28 9 4 21 18 28 32 12 28 20 30 49 14z m205
-793 c19 -20 18 -37 -3 -29 -21 8 -34 24 -27 35 7 11 13 10 30 -6z m1552 -495
c8 -5 12 -17 10 -27 -3 -19 -10 -21 -148 -40 -44 -6 -45 -5 -22 11 17 13 20
20 12 30 -14 17 3 29 33 22 12 -3 38 -2 57 3 19 4 37 8 40 9 3 0 11 -3 18 -8z
m-245 -59 c43 -38 1 -57 -100 -46 -61 6 -73 17 -28 26 13 2 19 10 17 22 -3 14
1 16 17 11 11 -3 28 -2 38 4 19 10 27 7 56 -17z m-185 -14 c34 -28 -5 -42 -94
-33 -71 8 -78 20 -24 40 37 14 97 10 118 -7z m-183 -161 c10 -8 15 -19 11 -25
-13 -21 -226 -54 -226 -35 0 5 14 24 31 41 29 30 36 32 98 32 41 0 74 -5 86
-13z m-3221 -819 c-7 -11 -34 3 -34 18 0 12 4 12 19 2 11 -7 18 -15 15 -20z
m-44 -58 c0 -5 -2 -10 -4 -10 -3 0 -8 5 -11 10 -3 6 -1 10 4 10 6 0 11 -4 11
-10z m-23 -162 c-3 -8 -6 -5 -6 6 -1 11 2 17 5 13 3 -3 4 -12 1 -19z m85 -23
c6 -14 17 -25 24 -25 7 0 19 -10 25 -22 6 -12 20 -31 30 -42 23 -24 39 -77 39
-129 0 -46 -22 -59 -51 -28 -14 15 -27 19 -45 15 -65 -16 -68 -12 -79 144 -6
92 -6 101 11 105 33 8 34 8 46 -18z m136 -317 c-5 -16 -48 -24 -48 -10 0 11
17 20 38 21 8 1 12 -5 10 -11z m2647 -208 c3 -5 1 -10 -4 -10 -6 0 -11 5 -11
10 0 6 2 10 4 10 3 0 8 -4 11 -10z m268 -499 c14 -17 28 -27 31 -24 3 4 6 -1
6 -11 0 -9 -4 -14 -10 -11 -5 3 -10 1 -10 -4 0 -6 -7 -11 -15 -11 -16 0 -58
74 -48 84 11 11 21 6 46 -23z m-2393 -395 c0 -3 -4 -8 -10 -11 -5 -3 -10 -1
-10 4 0 6 5 11 10 11 6 0 10 -2 10 -4z m3250 -1856 c0 -5 -4 -10 -10 -10 -5 0
-10 5 -10 10 0 6 5 10 10 10 6 0 10 -4 10 -10z m3890 -14 c0 -2 -7 -9 -15 -16
-12 -10 -15 -10 -15 4 0 9 7 16 15 16 8 0 15 -2 15 -4z m-5183 -443 c-3 -3
-11 -2 -17 2 -8 5 -7 11 2 22 12 15 13 14 16 -1 2 -10 1 -20 -1 -23z m-103
-151 c8 -13 -11 -35 -23 -28 -16 10 -14 36 3 36 8 0 17 -4 20 -8z"/>
<path d="M2389 8214 c-28 -14 -47 -60 -31 -76 21 -21 92 26 92 61 0 21 -34 30
-61 15z"/>
<path d="M2852 8043 c4 -39 28 -42 28 -4 0 21 -5 31 -16 31 -11 0 -14 -8 -12
-27z"/>
<path d="M2025 7985 c-16 -8 -40 -14 -51 -15 -12 0 -27 -6 -33 -14 -10 -12 -3
-15 41 -19 29 -3 67 -8 84 -12 32 -7 94 16 94 35 0 37 -77 51 -135 25z"/>
<path d="M2395 7855 l-30 -25 30 6 c39 9 65 22 65 34 0 18 -35 10 -65 -15z"/>
<path d="M2030 7543 c-26 -10 -70 -44 -70 -54 0 -15 40 -10 56 6 18 18 75 20
91 4 15 -15 43 -4 43 15 0 8 -8 17 -17 20 -36 10 -88 15 -103 9z"/>
<path d="M2970 7311 c0 -12 6 -21 16 -21 9 0 14 7 12 17 -5 25 -28 28 -28 4z"/>
<path d="M6470 7195 c0 -8 9 -15 19 -15 26 0 35 16 15 24 -25 10 -34 7 -34 -9z"/>
<path d="M2270 7191 c-23 -15 -9 -19 40 -11 25 4 38 8 30 9 -8 1 -24 4 -35 6
-11 3 -27 1 -35 -4z"/>
<path d="M2003 7156 c-18 -12 -32 -29 -33 -38 0 -27 95 -26 110 1 14 27 13 29
-17 44 -25 12 -31 12 -60 -7z"/>
<path d="M6307 7070 c-33 -39 -20 -51 23 -23 22 15 40 30 40 35 0 16 -46 7
-63 -12z"/>
<path d="M6262 6976 c-77 -66 -132 -153 -132 -211 0 -13 -9 -33 -21 -44 -14
-13 -22 -34 -24 -68 -5 -77 -17 -127 -33 -146 -13 -15 -14 -22 -4 -37 17 -27
15 -33 -7 -27 -12 3 -28 -4 -41 -18 -18 -19 -20 -30 -15 -68 6 -40 4 -48 -25
-81 -18 -20 -41 -36 -51 -36 -11 0 -19 -7 -19 -16 0 -8 5 -12 10 -9 6 3 10 -1
10 -10 0 -10 -7 -15 -17 -13 -14 2 -18 -4 -18 -32 1 -19 -3 -39 -7 -45 -4 -5
-21 -26 -38 -47 -59 -70 -79 -155 -65 -273 4 -28 0 -86 -8 -133 -16 -88 -8
-134 22 -124 8 3 18 -3 23 -12 19 -34 26 -3 23 105 -3 80 -8 117 -20 135 -16
25 -13 44 8 44 13 0 37 -66 37 -103 0 -35 23 -78 38 -72 8 3 17 5 22 5 5 0 18
30 31 68 12 37 41 114 66 170 34 83 44 117 46 170 2 66 2 67 -23 64 -14 -2
-31 -9 -37 -14 -10 -8 -13 -5 -13 9 0 27 43 65 63 57 14 -5 16 -1 11 24 -4 22
-1 35 12 49 22 22 47 73 39 81 -2 3 4 11 15 19 11 8 20 22 20 31 0 10 8 22 19
29 10 6 22 24 25 39 7 26 33 64 75 109 24 26 44 65 37 73 -4 3 -22 -2 -41 -11
-35 -17 -75 -23 -62 -11 3 4 0 16 -8 28 -17 24 -11 111 10 136 21 25 65 114
65 131 0 9 7 22 15 29 16 13 19 38 7 56 -5 8 -10 8 -20 0z m-392 -1097 c0 -5
-4 -9 -10 -9 -5 0 -10 7 -10 16 0 8 5 12 10 9 6 -3 10 -10 10 -16z"/>
<path d="M5807 6973 c-4 -3 -7 -15 -7 -25 0 -26 24 -17 28 10 3 21 -8 29 -21
15z"/>
<path d="M7450 6883 c0 -16 16 -31 35 -35 12 -2 20 -12 21 -23 0 -11 6 -33 12
-49 10 -23 15 -26 27 -16 20 17 20 44 0 36 -13 -5 -15 0 -10 28 6 30 4 34 -28
49 -38 18 -57 21 -57 10z"/>
<path d="M7120 6859 c0 -6 -7 -8 -17 -5 -20 8 -73 -39 -73 -65 0 -9 -7 -23
-16 -30 -9 -7 -30 -37 -46 -66 -31 -55 -47 -64 -69 -37 -14 17 -78 11 -91 -9
-5 -8 -11 -7 -21 1 -11 10 -17 9 -27 -4 -23 -27 -71 -46 -106 -42 -27 3 -35 0
-43 -20 -6 -12 -11 -34 -11 -47 0 -13 -4 -27 -10 -30 -18 -11 -11 -25 12 -25
31 0 14 -12 -61 -44 -41 -17 -81 -44 -113 -76 -30 -30 -58 -50 -72 -50 -19 0
-22 -4 -18 -29 3 -21 10 -31 26 -33 18 -3 21 -9 21 -57 0 -55 -20 -91 -50 -91
-31 0 -62 -88 -81 -232 -7 -56 7 -64 31 -18 9 17 19 30 23 30 13 0 74 59 120
117 24 28 66 65 95 82 28 16 104 79 167 140 l114 109 53 -5 c29 -3 53 -4 53
-1 0 3 -9 15 -20 28 -11 12 -16 28 -12 34 4 6 12 36 17 66 8 42 15 57 33 65
12 5 25 18 28 28 3 10 19 20 35 24 34 7 44 22 84 141 22 64 35 87 57 100 30
18 35 31 16 50 -15 15 -28 15 -28 1z m-435 -348 c5 -9 -31 -41 -46 -41 -9 0
-18 37 -11 44 9 10 50 7 57 -3z"/>
<path d="M5463 6818 c-11 -13 -11 -73 0 -84 9 -10 23 44 18 70 -5 25 -8 27
-18 14z"/>
<path d="M2854 6786 c-12 -11 -38 -32 -58 -46 -21 -15 -35 -33 -35 -45 0 -11
20 -40 44 -65 25 -25 45 -54 45 -66 0 -25 29 -114 43 -131 5 -7 20 -13 33 -13
30 0 58 -41 49 -72 -14 -52 -28 -78 -40 -78 -8 0 -19 -17 -26 -37 -7 -21 -27
-52 -45 -69 l-34 -30 -1 -112 c0 -62 -5 -114 -10 -118 -5 -3 -6 -11 -2 -17 4
-7 13 -37 19 -67 11 -51 10 -77 -1 -153 -4 -23 0 -29 22 -38 22 -8 37 -6 78
14 27 14 76 30 108 36 32 6 63 14 70 18 6 4 43 10 82 13 65 5 71 7 84 34 12
25 11 33 -2 56 -9 14 -15 40 -15 57 1 34 -12 59 -62 113 -18 19 -51 55 -72 78
l-40 44 4 73 c3 61 7 78 27 99 14 14 30 26 38 26 24 0 14 38 -22 82 -39 49
-65 100 -70 140 -6 50 -15 64 -54 89 -24 15 -47 41 -60 69 -26 55 -26 68 -1
100 28 36 25 40 -27 39 -35 -1 -54 -7 -69 -23z m61 -785 c7 -12 -12 -24 -25
-16 -11 7 -4 25 10 25 5 0 11 -4 15 -9z"/>
<path d="M5412 6692 c-20 -16 -23 -25 -20 -72 4 -67 28 -83 28 -18 0 24 4 58
9 76 5 17 9 32 8 32 -1 0 -12 -8 -25 -18z"/>
<path d="M1921 6651 c-7 -5 -57 -8 -110 -7 -96 2 -161 -12 -161 -35 0 -8 13
-9 43 -4 23 4 56 7 74 6 18 0 35 4 38 9 13 21 35 10 35 -19 0 -52 43 -66 52
-16 2 11 15 26 30 33 17 8 25 18 21 27 -6 17 -4 17 -22 6z"/>
<path d="M5376 6500 c-20 -52 -20 -57 3 -65 11 -3 23 -15 26 -26 7 -20 7 -20
21 -2 7 10 14 28 14 41 0 29 -26 92 -38 92 -6 0 -17 -18 -26 -40z"/>
<path d="M5050 6500 c-12 -23 -2 -210 11 -210 5 0 9 15 9 33 0 17 3 69 7 115
4 57 3 82 -5 82 -6 0 -16 -9 -22 -20z"/>
<path d="M1984 6366 c-10 -8 -24 -12 -31 -9 -26 10 -12 -7 18 -23 26 -13 33
-14 40 -2 21 32 3 55 -27 34z"/>
<path d="M4600 6352 c0 -15 11 -48 25 -74 14 -26 25 -59 25 -74 0 -15 13 -41
30 -61 24 -27 30 -43 30 -79 0 -52 41 -149 70 -164 14 -7 23 -6 35 7 19 19 15
60 -15 133 -10 25 -30 83 -45 130 -29 89 -48 123 -99 178 -37 39 -56 41 -56 4z"/>
<path d="M2825 6330 c-9 -15 4 -30 26 -30 24 0 24 12 -1 27 -12 8 -21 9 -25 3z"/>
<path d="M2262 6257 c-5 -6 -13 -28 -16 -47 -4 -19 -14 -52 -23 -73 -13 -31
-20 -36 -37 -31 -12 3 -23 6 -26 6 -34 1 -43 -7 -60 -46 -11 -24 -27 -49 -35
-56 -9 -8 -13 -21 -9 -36 5 -19 1 -26 -20 -34 -15 -5 -24 -15 -20 -23 7 -19
-34 -68 -54 -65 -13 2 -16 -4 -14 -26 4 -33 -32 -78 -54 -69 -8 3 -26 2 -40
-1 -25 -7 -26 -8 -9 -26 10 -11 15 -26 12 -34 -9 -24 11 -29 39 -11 15 10 23
22 20 31 -3 8 1 14 9 14 8 0 15 -9 15 -20 0 -11 4 -20 10 -20 5 0 17 -9 27
-20 15 -15 29 -18 70 -16 35 3 53 0 56 -9 6 -15 86 -38 118 -33 34 4 36 39 5
94 -32 57 -32 60 0 80 19 13 28 14 37 5 6 -6 32 -11 58 -11 55 0 161 51 192
92 20 27 17 49 -18 132 l-13 28 -23 -31 c-12 -17 -28 -31 -34 -31 -6 0 -39 30
-73 66 l-62 67 0 78 c0 77 -8 100 -28 76z m-87 -225 c51 -45 61 -110 20 -136
-29 -19 -62 -21 -68 -3 -4 13 2 123 8 145 6 16 16 15 40 -6z"/>
<path d="M7833 6253 c-24 -9 -3 -73 23 -73 12 0 35 60 28 71 -6 10 -31 11 -51
2z"/>
<path d="M1120 6231 c0 -11 -6 -22 -12 -24 -9 -4 -8 -6 3 -6 18 -1 39 18 39
36 0 7 -7 13 -15 13 -8 0 -15 -9 -15 -19z"/>
<path d="M1147 6190 c-7 -27 9 -35 22 -11 14 26 14 31 -3 31 -7 0 -16 -9 -19
-20z"/>
<path d="M2416 6184 c-3 -9 -6 -29 -6 -45 0 -23 6 -32 26 -40 35 -13 38 -8 24
38 -7 21 -14 44 -16 51 -5 17 -21 15 -28 -4z"/>
<path d="M1700 6115 l-23 -25 26 0 c21 0 27 -5 27 -21 0 -12 4 -17 11 -14 10
7 3 63 -10 78 -4 4 -18 -4 -31 -18z"/>
<path d="M7730 6080 c0 -5 5 -10 10 -10 6 0 10 5 10 10 0 6 -4 10 -10 10 -5 0
-10 -4 -10 -10z"/>
<path d="M7030 6030 c0 -5 7 -10 15 -10 8 0 15 5 15 10 0 6 -7 10 -15 10 -8 0
-15 -4 -15 -10z"/>
<path d="M7590 6031 c0 -6 -12 -14 -27 -17 -16 -4 -39 -15 -52 -26 -13 -10
-34 -18 -47 -18 -13 0 -34 -10 -46 -22 -39 -40 -72 -58 -110 -58 -55 0 -69 -8
-62 -35 9 -35 -22 -62 -78 -70 -27 -4 -48 -11 -48 -16 0 -5 -27 -37 -61 -71
l-61 -61 6 -66 c9 -101 6 -175 -7 -183 -7 -5 -25 -5 -40 -2 -26 5 -28 4 -22
-16 5 -17 -3 -31 -44 -70 -28 -27 -61 -50 -73 -52 -21 -3 -23 -9 -26 -63 -3
-62 -27 -125 -49 -125 -22 0 -80 -65 -86 -97 -7 -36 -5 -38 23 -23 11 6 54 17
97 26 58 12 86 23 108 44 40 38 104 54 183 46 55 -6 67 -4 109 19 40 23 50 25
74 15 52 -22 54 -35 15 -75 -30 -29 -42 -35 -79 -35 -63 0 -104 -17 -166 -67
-49 -40 -58 -43 -92 -38 -30 5 -40 3 -50 -13 -8 -10 -29 -27 -47 -36 -40 -21
-52 -50 -45 -105 7 -53 -11 -91 -44 -91 -16 0 -27 8 -33 24 -9 25 -27 36 -47
28 -17 -6 -16 -37 2 -71 8 -16 12 -30 10 -33 -2 -2 5 -5 17 -5 29 -3 33 -10
16 -30 -8 -10 -25 -39 -38 -65 -13 -26 -41 -66 -63 -90 -45 -48 -52 -63 -62
-135 l-7 -52 52 14 c54 14 65 21 116 69 18 16 39 31 48 32 10 1 24 8 33 16 18
15 55 18 273 21 149 2 155 1 177 -21 16 -16 30 -21 44 -17 12 4 30 0 45 -10
28 -18 27 -18 155 98 25 23 58 53 72 65 15 13 32 22 39 19 7 -2 25 2 39 9 15
7 66 16 114 18 70 4 92 10 110 26 12 11 27 20 34 20 8 0 11 6 7 16 -4 9 -1 23
6 31 17 21 19 43 8 77 -8 24 -7 33 10 51 21 22 26 45 11 45 -6 0 -13 -4 -16
-10 -12 -19 -34 -10 -70 27 -21 22 -34 44 -32 54 2 9 0 24 -5 33 -8 14 -12 14
-37 1 -46 -23 -50 -65 -7 -65 31 0 56 -30 56 -66 0 -37 -16 -54 -50 -54 -15 0
-53 -9 -86 -20 -77 -26 -90 -25 -121 6 -14 14 -27 23 -30 20 -3 -3 -7 -23 -8
-46 -3 -42 -19 -70 -38 -70 -6 0 -31 10 -55 22 l-45 21 -24 -27 c-17 -20 -23
-39 -23 -75 0 -47 0 -48 -42 -61 -24 -8 -52 -20 -64 -27 -31 -20 -114 -6 -114
18 0 11 -4 19 -10 19 -5 0 -10 -4 -10 -10 0 -17 -44 -33 -130 -47 -46 -8 -91
-20 -100 -28 -9 -8 -33 -15 -54 -15 -23 0 -39 -5 -42 -15 -3 -8 -16 -14 -29
-13 -17 2 -21 7 -17 23 7 29 23 47 39 41 9 -4 13 4 13 29 0 37 70 152 100 163
8 3 36 29 61 57 26 28 60 57 75 65 16 8 43 24 59 36 17 12 55 32 85 45 30 12
71 35 90 51 19 15 39 28 44 28 13 0 106 72 106 82 0 5 -16 22 -35 39 -24 22
-33 37 -31 52 3 12 5 25 5 30 1 4 6 7 11 7 6 0 28 12 50 26 32 22 39 31 34 50
-3 13 1 34 11 51 21 34 105 103 161 131 22 11 46 28 53 36 8 9 29 16 51 16 40
0 146 49 168 77 20 27 15 44 -11 38 -19 -5 -25 0 -35 29 -15 41 -25 44 -50 15
-27 -33 -87 -59 -135 -59 -24 0 -62 -9 -85 -20 -22 -11 -51 -20 -64 -20 -13
-1 -34 -7 -48 -15 -14 -8 -41 -14 -60 -15 -19 0 -48 -9 -65 -20 -96 -63 -196
-97 -239 -80 -33 12 -33 24 4 96 21 40 49 74 87 104 63 50 249 233 333 326 30
34 70 77 88 97 19 20 32 45 30 54 -3 19 -38 31 -38 14z"/>
<path d="M6963 6003 c-9 -16 -29 -37 -45 -46 -24 -14 -35 -39 -25 -64 3 -10
57 -12 63 -1 3 5 14 6 24 3 14 -4 23 2 33 22 21 40 16 83 -10 100 -21 14 -24
13 -40 -14z"/>
<path d="M7660 6010 c0 -5 4 -10 9 -10 6 0 13 5 16 10 3 6 -1 10 -9 10 -9 0
-16 -4 -16 -10z"/>
<path d="M4932 5821 c4 -13 18 -16 19 -4 0 4 -5 9 -11 12 -7 2 -11 -2 -8 -8z"/>
<path d="M2684 5635 c-4 -8 -18 -15 -33 -15 -34 0 -74 -26 -51 -33 33 -11 133
-27 139 -22 11 6 0 69 -13 77 -18 12 -36 9 -42 -7z"/>
<path d="M1655 5420 c-32 -13 -68 -57 -61 -75 14 -38 74 3 91 63 7 23 2 26
-30 12z"/>
<path d="M8042 5398 c-7 -7 -12 -20 -12 -29 0 -10 -4 -21 -10 -24 -18 -11 -11
-45 9 -45 20 0 37 32 32 62 -1 9 3 19 9 23 11 7 5 25 -9 25 -4 0 -12 -5 -19
-12z"/>
<path d="M5837 5383 c-11 -10 -8 -43 3 -43 6 0 10 11 10 25 0 26 -2 29 -13 18z"/>
<path d="M5868 5253 c6 -59 8 -62 23 -29 9 20 9 32 1 51 -18 40 -30 29 -24
-22z"/>
<path d="M7768 5283 c-29 -7 -20 -23 13 -23 19 0 29 4 27 12 -5 14 -17 17 -40
11z"/>
<path d="M4325 5240 c-10 -17 4 -28 28 -23 49 11 53 13 37 23 -20 13 -57 13
-65 0z"/>
<path d="M3073 5172 c-70 -30 -83 -40 -83 -59 0 -31 20 -37 56 -18 16 8 36 15
45 15 26 0 87 28 96 44 4 7 17 15 27 17 33 7 31 29 -2 29 -17 0 -36 2 -44 4
-7 3 -50 -12 -95 -32z"/>
<path d="M4358 5183 c7 -3 16 -2 19 1 4 3 -2 6 -13 5 -11 0 -14 -3 -6 -6z"/>
<path d="M2189 5120 c32 -27 81 -27 81 0 0 18 -7 20 -52 20 l-53 -1 24 -19z"/>
<path d="M2624 5005 c-8 -19 12 -44 43 -56 25 -9 187 7 216 23 38 20 -13 36
-136 43 -101 5 -118 4 -123 -10z"/>
<path d="M3689 4953 c-5 -16 -11 -33 -14 -40 -7 -20 19 -42 55 -45 29 -2 35 0
38 18 2 13 -7 32 -22 48 -14 14 -26 30 -26 36 0 21 -21 9 -31 -17z"/>
<path d="M3410 4951 c-26 -5 -42 -17 -66 -51 -18 -25 -47 -62 -65 -83 -17 -21
-30 -39 -28 -40 2 -1 19 -13 37 -25 37 -26 54 -22 29 6 -26 28 -21 52 12 63
19 7 31 19 33 32 2 15 18 27 56 42 28 11 52 25 52 31 0 20 -24 30 -60 25z"/>
<path d="M2930 4861 c0 -16 -5 -31 -12 -33 -6 -2 -9 -12 -5 -21 5 -13 19 -17
62 -17 52 0 56 2 51 20 -3 11 -8 29 -11 39 -5 17 -50 41 -76 41 -5 0 -9 -13
-9 -29z"/>
<path d="M7960 4810 c0 -23 29 -27 48 -8 19 19 14 28 -18 28 -23 0 -30 -4 -30
-20z"/>
<path d="M4087 4713 c-14 -13 -6 -33 13 -33 13 0 20 7 20 20 0 19 -20 27 -33
13z"/>
<path d="M8000 4610 c-13 -8 -12 -10 3 -10 9 0 17 5 17 10 0 12 -1 12 -20 0z"/>
<path d="M8190 4362 c-69 -5 -80 -10 -80 -41 0 -18 11 -40 30 -59 17 -18 30
-39 30 -47 0 -9 11 -21 25 -27 34 -15 64 2 110 60 41 53 43 71 13 99 -23 21
-35 22 -128 15z"/>
<path d="M7950 4233 c0 -43 13 -72 24 -54 4 6 15 11 25 11 10 0 24 6 30 14 9
11 5 19 -19 40 -45 37 -60 34 -60 -11z"/>
<path d="M7042 4120 c-44 -10 -47 -15 -35 -55 11 -34 10 -34 -31 -55 -23 -11
-47 -20 -54 -20 -20 0 -23 -19 -5 -40 23 -26 51 -26 80 2 17 15 41 23 87 27
61 6 66 8 90 44 32 47 32 57 1 57 -18 0 -26 7 -31 25 -7 27 -34 31 -102 15z
m84 -55 c19 -14 19 -14 0 -15 -11 0 -28 -8 -38 -17 -17 -15 -20 -15 -34 -2
-37 37 27 68 72 34z"/>
<path d="M3862 4088 c-16 -16 -15 -28 2 -28 19 0 27 13 17 28 -5 9 -10 9 -19
0z"/>
<path d="M2565 4080 c-33 -6 -55 -17 -67 -32 -17 -23 -17 -23 22 -32 58 -13
109 0 120 30 11 27 30 24 30 -5 0 -27 51 -35 58 -9 4 16 7 17 21 5 19 -17 101
-30 118 -19 7 5 9 13 3 21 -6 10 -20 12 -56 7 -37 -5 -57 -2 -90 14 -53 26
-95 31 -159 20z"/>
<path d="M7663 3889 c-10 -16 -24 -29 -33 -30 -10 0 -11 -2 -2 -6 6 -2 12 -11
12 -19 0 -18 17 -18 27 0 9 16 173 33 173 18 0 -4 13 -18 29 -30 l30 -22 20
34 c26 41 28 71 5 62 -9 -3 -35 -1 -58 5 -22 6 -74 12 -114 14 -70 2 -73 1
-89 -26z"/>
<path d="M7490 3850 c-25 -5 -65 -11 -90 -15 -25 -4 -61 -14 -80 -23 -19 -9
-42 -16 -50 -17 -8 0 -16 -7 -18 -15 -2 -11 5 -16 25 -15 23 0 27 -4 25 -22
-3 -24 30 -53 62 -53 34 0 214 102 220 124 6 21 -17 47 -38 45 -6 -1 -31 -5
-56 -9z"/>
<path d="M6772 3628 c-7 -7 -16 -13 -20 -13 -29 -3 -53 -22 -71 -56 -25 -48
-26 -65 -5 -73 26 -10 31 -7 68 37 22 26 37 58 40 80 5 41 5 42 -12 25z"/>
<path d="M7923 3613 c-7 -2 -13 -13 -13 -23 0 -10 -4 -22 -10 -25 -5 -3 -10
-17 -10 -31 0 -24 -2 -24 -49 -18 -42 5 -51 4 -59 -13 -12 -22 12 -83 32 -83
17 0 86 65 86 81 0 8 16 24 36 37 28 18 35 28 32 50 -3 26 -20 36 -45 25z"/>
<path d="M3734 3505 c-4 -8 -14 -15 -23 -15 -9 0 -27 -7 -40 -16 -13 -9 -41
-17 -62 -18 -37 -1 -39 -2 -34 -27 5 -21 2 -28 -14 -32 -33 -8 -24 -24 10 -19
21 3 34 -1 43 -14 12 -15 16 -16 30 -5 9 7 16 18 16 23 0 5 14 26 31 47 23 30
36 37 52 33 12 -3 25 -9 28 -14 3 -5 21 -2 40 6 25 11 29 15 13 16 -12 0 -25
10 -32 25 -13 28 -49 34 -58 10z"/>
<path d="M8718 3478 c-33 -36 -33 -35 -7 -48 25 -14 49 2 49 34 0 41 -14 45
-42 14z"/>
<path d="M7570 3413 c0 -5 11 -20 25 -33 14 -13 25 -27 25 -31 0 -15 -66 -69
-117 -96 -43 -23 -54 -35 -72 -78 -33 -80 -30 -86 33 -60 21 9 58 20 84 25 26
5 73 24 104 42 62 36 78 63 78 132 0 60 -20 82 -77 89 -26 3 -56 9 -65 12 -10
4 -18 3 -18 -2z"/>
<path d="M8632 3398 c2 -12 11 -24 21 -26 14 -3 18 1 15 20 -2 12 -11 24 -21
26 -14 3 -18 -1 -15 -20z"/>
<path d="M8640 3324 c0 -8 5 -12 10 -9 6 4 8 11 5 16 -9 14 -15 11 -15 -7z"/>
<path d="M8350 3200 c-8 -5 -27 -10 -42 -10 -15 0 -30 -4 -33 -10 -3 -5 -15
-10 -27 -10 -17 0 -18 -3 -9 -14 9 -11 27 -13 69 -9 74 6 114 21 110 42 -4 19
-46 26 -68 11z"/>
<path d="M2978 3169 c-11 -6 -18 -22 -18 -39 l0 -30 -101 1 c-111 1 -134 -8
-105 -40 22 -25 82 -35 152 -26 37 4 54 11 54 21 0 11 11 14 43 12 40 -3 42
-2 39 22 -2 14 -4 37 -4 53 -1 15 -4 27 -9 27 -4 0 -13 2 -21 5 -7 2 -21 0
-30 -6z"/>
<path d="M2612 3149 c2 -7 10 -15 17 -17 8 -3 12 1 9 9 -2 7 -10 15 -17 17 -8
3 -12 -1 -9 -9z"/>
<path d="M7279 3136 c-3 -3 -37 -12 -75 -19 -45 -8 -87 -24 -119 -46 -44 -28
-52 -40 -62 -80 -12 -50 -1 -80 22 -61 7 6 20 8 28 4 10 -3 41 9 75 30 33 20
71 36 85 36 16 0 41 15 67 40 23 22 46 40 51 40 6 0 9 12 7 28 -3 23 -8 27
-38 30 -20 2 -38 1 -41 -2z"/>
<path d="M2041 3086 c-9 -10 -6 -17 13 -30 28 -17 101 -23 91 -6 -3 6 -15 10
-26 10 -10 0 -24 9 -31 20 -15 23 -31 26 -47 6z"/>
<path d="M2541 3076 c-10 -12 -8 -13 8 -9 12 3 21 9 21 14 0 14 -16 11 -29 -5z"/>
<path d="M2695 3080 c3 -5 10 -10 16 -10 5 0 9 5 9 10 0 6 -7 10 -16 10 -8 0
-12 -4 -9 -10z"/>
<path d="M3140 3055 c-10 -12 -9 -20 4 -40 14 -21 20 -23 36 -15 10 6 22 15
25 20 3 6 15 10 26 10 10 0 19 6 19 14 0 27 -89 36 -110 11z"/>
<path d="M7827 2958 c-7 -23 15 -58 37 -58 12 0 35 12 51 26 17 14 23 23 13
20 -9 -2 -24 2 -35 9 -23 18 -60 19 -66 3z"/>
<path d="M2996 2855 c-9 -7 -16 -20 -16 -30 0 -14 -6 -17 -33 -12 -34 5 -67
-11 -67 -33 0 -7 -7 -10 -15 -6 -17 6 -95 -40 -95 -56 0 -11 42 -27 54 -20 8
5 67 19 166 41 47 10 60 18 104 69 23 25 33 42 25 43 -8 0 -35 4 -60 8 -31 5
-52 4 -63 -4z"/>
<path d="M6393 2843 c-3 -10 -13 -26 -21 -35 -20 -24 -24 -144 -6 -180 14 -26
42 -48 62 -48 14 0 62 77 62 99 0 11 -7 24 -16 29 -11 6 -17 25 -19 53 -4 76
-45 130 -62 82z"/>
<path d="M6810 2765 c-21 -26 3 -135 25 -113 3 3 7 32 8 63 2 60 -10 78 -33
50z"/>
<path d="M2595 2710 c-4 -6 -1 -18 6 -26 11 -14 13 -14 21 0 15 26 -12 51 -27
26z"/>
<path d="M2342 2688 c-7 -7 -12 -30 -12 -51 l0 -39 38 7 c20 4 44 13 53 21 8
8 25 14 37 14 29 0 28 24 -3 44 -29 19 -96 21 -113 4z"/>
<path d="M6654 2633 c-48 -71 -49 -90 -4 -94 59 -5 61 -3 58 58 -4 68 -24 81
-54 36z"/>
<path d="M2100 2582 c-56 -31 -50 -42 23 -42 77 0 102 18 63 44 -32 20 -44 20
-86 -2z"/>
<path d="M7082 2583 c-21 -8 -3 -23 29 -23 31 0 39 14 13 24 -18 7 -23 7 -42
-1z"/>
<path d="M7275 2567 c-16 -6 -31 -12 -33 -13 -1 0 13 -17 31 -36 28 -30 36
-34 53 -25 10 7 33 12 49 12 24 0 31 5 33 23 3 18 -4 26 -32 37 -40 17 -59 17
-101 2z"/>
<path d="M7208 2533 c7 -3 16 -2 19 1 4 3 -2 6 -13 5 -11 0 -14 -3 -6 -6z"/>
<path d="M3360 2510 c-61 -9 -90 -23 -119 -54 -28 -29 -92 -50 -127 -42 -17 5
-24 1 -29 -14 -3 -11 -3 -25 0 -31 11 -16 179 -3 209 17 14 8 30 13 35 10 15
-10 51 16 51 36 0 10 6 18 14 18 7 0 21 12 31 26 14 22 15 28 4 35 -8 5 -16 8
-19 8 -3 -1 -25 -5 -50 -9z"/>
<path d="M7850 2514 c-120 -37 -148 -48 -144 -58 6 -15 274 -10 289 5 5 5 -3
9 -22 9 -22 0 -38 8 -51 25 -19 24 -39 29 -72 19z"/>
<path d="M1963 2478 c-20 -29 -21 -33 -7 -60 8 -16 29 -34 45 -40 21 -7 32
-19 36 -39 3 -16 10 -32 14 -35 5 -3 9 -14 9 -25 0 -10 5 -19 10 -19 6 0 10
10 9 23 -1 12 -1 35 -1 50 2 27 5 28 39 25 28 -2 38 1 41 13 4 20 -29 30 -70
22 -39 -8 -65 18 -74 73 -7 52 -21 55 -51 12z"/>
<path d="M2820 2464 c-14 -7 -29 -15 -35 -17 -18 -7 16 -37 54 -47 20 -5 56
-28 80 -50 23 -22 44 -40 46 -40 2 0 10 20 18 44 14 41 14 45 -7 71 -14 17
-36 30 -61 35 -22 4 -47 10 -55 13 -8 3 -26 -1 -40 -9z"/>
<path d="M2205 2411 c-3 -6 4 -15 16 -21 15 -9 18 -15 10 -23 -6 -6 -11 -23
-11 -38 0 -32 21 -42 90 -43 56 -2 64 2 49 20 -6 7 -16 11 -23 7 -6 -3 -1 5
12 19 24 27 29 57 10 76 -14 14 -144 16 -153 3z"/>
<path d="M2398 2413 c6 -2 18 -2 25 0 6 3 1 5 -13 5 -14 0 -19 -2 -12 -5z"/>
<path d="M3031 2406 c-9 -10 -9 -16 -1 -21 17 -10 37 12 24 25 -8 8 -15 6 -23
-4z"/>
<path d="M1820 2392 c0 -12 39 -46 45 -41 6 7 -24 49 -36 49 -5 0 -9 -4 -9 -8z"/>
<path d="M1965 2360 c-4 -6 -3 -16 3 -22 13 -13 23 4 13 21 -7 10 -10 10 -16
1z"/>
<path d="M6975 2340 c-3 -5 -1 -10 4 -10 6 0 11 5 11 10 0 6 -2 10 -4 10 -3 0
-8 -4 -11 -10z"/>
<path d="M3785 2310 c-3 -5 -1 -10 4 -10 6 0 11 5 11 10 0 6 -2 10 -4 10 -3 0
-8 -4 -11 -10z"/>
<path d="M1995 2250 c3 -5 11 -10 16 -10 6 0 7 5 4 10 -3 6 -11 10 -16 10 -6
0 -7 -4 -4 -10z"/>
<path d="M2685 2072 c-32 -17 -66 -27 -95 -27 -43 0 -45 -1 -48 -31 -4 -40 18
-58 72 -60 51 -1 169 15 178 24 6 6 -34 98 -50 114 -4 3 -29 -6 -57 -20z"/>
<path d="M3193 1833 c-15 -5 -18 -33 -4 -33 8 0 25 30 19 35 -2 1 -9 0 -15 -2z"/>
<path d="M2980 1746 c-13 -17 -7 -46 9 -46 14 0 25 40 14 51 -6 6 -15 4 -23
-5z"/>
</g>
</svg>
